<mxfile host="Electron" agent="Mozilla/5.0 (Windows NT 10.0; Win64; x64) AppleWebKit/537.36 (KHTML, like Gecko) draw.io/26.0.9 Chrome/128.0.6613.186 Electron/32.2.5 Safari/537.36" version="26.0.9">
  <diagram name="Page-1" id="r25ETAy6dcBBdOBsteu-">
    <mxGraphModel dx="2251" dy="1963" grid="1" gridSize="10" guides="1" tooltips="1" connect="1" arrows="1" fold="1" page="1" pageScale="1" pageWidth="850" pageHeight="1100" math="0" shadow="0">
      <root>
        <mxCell id="0" />
        <mxCell id="1" parent="0" />
        <mxCell id="JGorp6rQjVPcCGacSpVz-31" value="" style="rounded=1;whiteSpace=wrap;html=1;fillColor=none;dashed=1;dashPattern=8 8;" vertex="1" parent="1">
          <mxGeometry x="-165" y="70" width="675" height="470" as="geometry" />
        </mxCell>
        <mxCell id="JGorp6rQjVPcCGacSpVz-32" value="" style="rounded=1;whiteSpace=wrap;html=1;fillColor=none;dashed=1;dashPattern=8 8;" vertex="1" parent="1">
          <mxGeometry x="530" y="70" width="380" height="470" as="geometry" />
        </mxCell>
        <mxCell id="JGorp6rQjVPcCGacSpVz-1" value="&lt;font style=&quot;font-size: 48px;&quot;&gt;&lt;b&gt;Integration Model&lt;/b&gt;&lt;/font&gt;" style="text;html=1;align=center;verticalAlign=middle;whiteSpace=wrap;rounded=0;" vertex="1" parent="1">
          <mxGeometry x="-110" y="-30" width="460" height="30" as="geometry" />
        </mxCell>
        <mxCell id="JGorp6rQjVPcCGacSpVz-3" value="crm_cust_info" style="swimlane;fontStyle=0;childLayout=stackLayout;horizontal=1;startSize=30;horizontalStack=0;resizeParent=1;resizeParentMax=0;resizeLast=0;collapsible=1;marginBottom=0;whiteSpace=wrap;html=1;strokeWidth=2;fillColor=#dae8fc;strokeColor=light-dark(#000000, #5c79a3);rounded=1;" vertex="1" parent="1">
          <mxGeometry x="240" y="290" width="240" height="90" as="geometry" />
        </mxCell>
        <mxCell id="JGorp6rQjVPcCGacSpVz-4" value="cst_id" style="text;strokeColor=none;fillColor=none;align=left;verticalAlign=middle;spacingLeft=4;spacingRight=4;overflow=hidden;points=[[0,0.5],[1,0.5]];portConstraint=eastwest;rotatable=0;whiteSpace=wrap;html=1;" vertex="1" parent="JGorp6rQjVPcCGacSpVz-3">
          <mxGeometry y="30" width="240" height="30" as="geometry" />
        </mxCell>
        <mxCell id="JGorp6rQjVPcCGacSpVz-35" value="cst_key" style="text;strokeColor=none;fillColor=none;align=left;verticalAlign=middle;spacingLeft=4;spacingRight=4;overflow=hidden;points=[[0,0.5],[1,0.5]];portConstraint=eastwest;rotatable=0;whiteSpace=wrap;html=1;" vertex="1" parent="JGorp6rQjVPcCGacSpVz-3">
          <mxGeometry y="60" width="240" height="30" as="geometry" />
        </mxCell>
        <mxCell id="JGorp6rQjVPcCGacSpVz-8" value="Customer Information" style="text;html=1;align=center;verticalAlign=middle;whiteSpace=wrap;rounded=0;" vertex="1" parent="1">
          <mxGeometry x="300" y="260" width="120" height="30" as="geometry" />
        </mxCell>
        <mxCell id="JGorp6rQjVPcCGacSpVz-9" value="crm_prd_info" style="swimlane;fontStyle=0;childLayout=stackLayout;horizontal=1;startSize=30;horizontalStack=0;resizeParent=1;resizeParentMax=0;resizeLast=0;collapsible=1;marginBottom=0;whiteSpace=wrap;html=1;strokeWidth=2;fillColor=#dae8fc;strokeColor=light-dark(#000000, #5c79a3);rounded=1;" vertex="1" parent="1">
          <mxGeometry x="240" y="120" width="240" height="60" as="geometry" />
        </mxCell>
        <mxCell id="JGorp6rQjVPcCGacSpVz-10" value="prd_key" style="text;strokeColor=none;fillColor=none;align=left;verticalAlign=middle;spacingLeft=4;spacingRight=4;overflow=hidden;points=[[0,0.5],[1,0.5]];portConstraint=eastwest;rotatable=0;whiteSpace=wrap;html=1;" vertex="1" parent="JGorp6rQjVPcCGacSpVz-9">
          <mxGeometry y="30" width="240" height="30" as="geometry" />
        </mxCell>
        <mxCell id="JGorp6rQjVPcCGacSpVz-11" value="Current &amp;amp; History Product Information" style="text;html=1;align=center;verticalAlign=middle;whiteSpace=wrap;rounded=0;" vertex="1" parent="1">
          <mxGeometry x="205" y="95" width="310" height="30" as="geometry" />
        </mxCell>
        <mxCell id="JGorp6rQjVPcCGacSpVz-12" value="crm_sales_details" style="swimlane;fontStyle=0;childLayout=stackLayout;horizontal=1;startSize=30;horizontalStack=0;resizeParent=1;resizeParentMax=0;resizeLast=0;collapsible=1;marginBottom=0;whiteSpace=wrap;html=1;strokeWidth=2;fillColor=#dae8fc;strokeColor=light-dark(#000000, #5c79a3);rounded=1;" vertex="1" parent="1">
          <mxGeometry x="-145" y="180" width="240" height="90" as="geometry" />
        </mxCell>
        <mxCell id="JGorp6rQjVPcCGacSpVz-13" value="prd_key" style="text;strokeColor=none;fillColor=none;align=left;verticalAlign=middle;spacingLeft=4;spacingRight=4;overflow=hidden;points=[[0,0.5],[1,0.5]];portConstraint=eastwest;rotatable=0;whiteSpace=wrap;html=1;" vertex="1" parent="JGorp6rQjVPcCGacSpVz-12">
          <mxGeometry y="30" width="240" height="30" as="geometry" />
        </mxCell>
        <mxCell id="JGorp6rQjVPcCGacSpVz-15" value="cst_id" style="text;strokeColor=none;fillColor=none;align=left;verticalAlign=middle;spacingLeft=4;spacingRight=4;overflow=hidden;points=[[0,0.5],[1,0.5]];portConstraint=eastwest;rotatable=0;whiteSpace=wrap;html=1;" vertex="1" parent="JGorp6rQjVPcCGacSpVz-12">
          <mxGeometry y="60" width="240" height="30" as="geometry" />
        </mxCell>
        <mxCell id="JGorp6rQjVPcCGacSpVz-14" value="Transactional Records about&lt;div&gt;Sales &amp;amp; Orders&lt;/div&gt;" style="text;html=1;align=center;verticalAlign=middle;whiteSpace=wrap;rounded=0;" vertex="1" parent="1">
          <mxGeometry x="-180" y="150" width="310" height="30" as="geometry" />
        </mxCell>
        <mxCell id="JGorp6rQjVPcCGacSpVz-16" style="edgeStyle=orthogonalEdgeStyle;rounded=0;orthogonalLoop=1;jettySize=auto;html=1;entryX=0;entryY=0.75;entryDx=0;entryDy=0;" edge="1" parent="1" source="JGorp6rQjVPcCGacSpVz-15" target="JGorp6rQjVPcCGacSpVz-3">
          <mxGeometry relative="1" as="geometry" />
        </mxCell>
        <mxCell id="JGorp6rQjVPcCGacSpVz-18" style="edgeStyle=orthogonalEdgeStyle;rounded=0;orthogonalLoop=1;jettySize=auto;html=1;entryX=0;entryY=0.5;entryDx=0;entryDy=0;" edge="1" parent="1" source="JGorp6rQjVPcCGacSpVz-13" target="JGorp6rQjVPcCGacSpVz-10">
          <mxGeometry relative="1" as="geometry" />
        </mxCell>
        <mxCell id="JGorp6rQjVPcCGacSpVz-19" value="erp_cust_az12" style="swimlane;fontStyle=0;childLayout=stackLayout;horizontal=1;startSize=30;horizontalStack=0;resizeParent=1;resizeParentMax=0;resizeLast=0;collapsible=1;marginBottom=0;whiteSpace=wrap;html=1;strokeWidth=2;fillColor=#fff2cc;strokeColor=#000000;rounded=1;" vertex="1" parent="1">
          <mxGeometry x="640" y="290" width="240" height="60" as="geometry" />
        </mxCell>
        <mxCell id="JGorp6rQjVPcCGacSpVz-20" value="cid" style="text;strokeColor=none;fillColor=none;align=left;verticalAlign=middle;spacingLeft=4;spacingRight=4;overflow=hidden;points=[[0,0.5],[1,0.5]];portConstraint=eastwest;rotatable=0;whiteSpace=wrap;html=1;" vertex="1" parent="JGorp6rQjVPcCGacSpVz-19">
          <mxGeometry y="30" width="240" height="30" as="geometry" />
        </mxCell>
        <mxCell id="JGorp6rQjVPcCGacSpVz-21" value="Exra Customer Information (Birthdates)" style="text;html=1;align=center;verticalAlign=middle;whiteSpace=wrap;rounded=0;" vertex="1" parent="1">
          <mxGeometry x="605" y="265" width="310" height="30" as="geometry" />
        </mxCell>
        <mxCell id="JGorp6rQjVPcCGacSpVz-23" value="erp_loc_a101" style="swimlane;fontStyle=0;childLayout=stackLayout;horizontal=1;startSize=30;horizontalStack=0;resizeParent=1;resizeParentMax=0;resizeLast=0;collapsible=1;marginBottom=0;whiteSpace=wrap;html=1;strokeWidth=2;fillColor=#fff2cc;strokeColor=#000000;rounded=1;" vertex="1" parent="1">
          <mxGeometry x="640" y="435" width="240" height="60" as="geometry" />
        </mxCell>
        <mxCell id="JGorp6rQjVPcCGacSpVz-24" value="cid" style="text;strokeColor=none;fillColor=none;align=left;verticalAlign=middle;spacingLeft=4;spacingRight=4;overflow=hidden;points=[[0,0.5],[1,0.5]];portConstraint=eastwest;rotatable=0;whiteSpace=wrap;html=1;" vertex="1" parent="JGorp6rQjVPcCGacSpVz-23">
          <mxGeometry y="30" width="240" height="30" as="geometry" />
        </mxCell>
        <mxCell id="JGorp6rQjVPcCGacSpVz-25" value="Location of Customers (Country)" style="text;html=1;align=center;verticalAlign=middle;whiteSpace=wrap;rounded=0;" vertex="1" parent="1">
          <mxGeometry x="605" y="410" width="310" height="30" as="geometry" />
        </mxCell>
        <mxCell id="JGorp6rQjVPcCGacSpVz-27" value="erp_px_cat_g1v2" style="swimlane;fontStyle=0;childLayout=stackLayout;horizontal=1;startSize=30;horizontalStack=0;resizeParent=1;resizeParentMax=0;resizeLast=0;collapsible=1;marginBottom=0;whiteSpace=wrap;html=1;strokeWidth=2;fillColor=#fff2cc;strokeColor=#000000;rounded=1;" vertex="1" parent="1">
          <mxGeometry x="640" y="120" width="240" height="60" as="geometry" />
        </mxCell>
        <mxCell id="JGorp6rQjVPcCGacSpVz-28" value="id" style="text;strokeColor=none;fillColor=none;align=left;verticalAlign=middle;spacingLeft=4;spacingRight=4;overflow=hidden;points=[[0,0.5],[1,0.5]];portConstraint=eastwest;rotatable=0;whiteSpace=wrap;html=1;" vertex="1" parent="JGorp6rQjVPcCGacSpVz-27">
          <mxGeometry y="30" width="240" height="30" as="geometry" />
        </mxCell>
        <mxCell id="JGorp6rQjVPcCGacSpVz-29" value="Product Categories" style="text;html=1;align=center;verticalAlign=middle;whiteSpace=wrap;rounded=0;" vertex="1" parent="1">
          <mxGeometry x="605" y="95" width="310" height="30" as="geometry" />
        </mxCell>
        <mxCell id="JGorp6rQjVPcCGacSpVz-33" value="&lt;font style=&quot;font-size: 30px;&quot;&gt;&lt;b&gt;CRM&lt;/b&gt;&lt;/font&gt;" style="rounded=1;whiteSpace=wrap;html=1;fillColor=#dae8fc;strokeColor=#6c8ebf;" vertex="1" parent="1">
          <mxGeometry x="100" y="35" width="120" height="60" as="geometry" />
        </mxCell>
        <mxCell id="JGorp6rQjVPcCGacSpVz-34" value="&lt;font style=&quot;font-size: 30px;&quot;&gt;&lt;b&gt;ERP&lt;/b&gt;&lt;/font&gt;" style="rounded=1;whiteSpace=wrap;html=1;fillColor=#fff2cc;strokeColor=#d6b656;" vertex="1" parent="1">
          <mxGeometry x="660" y="30" width="120" height="60" as="geometry" />
        </mxCell>
        <mxCell id="JGorp6rQjVPcCGacSpVz-39" style="edgeStyle=orthogonalEdgeStyle;rounded=0;orthogonalLoop=1;jettySize=auto;html=1;entryX=1;entryY=0.5;entryDx=0;entryDy=0;" edge="1" parent="1" source="JGorp6rQjVPcCGacSpVz-28" target="JGorp6rQjVPcCGacSpVz-10">
          <mxGeometry relative="1" as="geometry" />
        </mxCell>
        <mxCell id="JGorp6rQjVPcCGacSpVz-40" style="edgeStyle=orthogonalEdgeStyle;rounded=0;orthogonalLoop=1;jettySize=auto;html=1;entryX=1;entryY=0.5;entryDx=0;entryDy=0;" edge="1" parent="1" source="JGorp6rQjVPcCGacSpVz-20" target="JGorp6rQjVPcCGacSpVz-35">
          <mxGeometry relative="1" as="geometry" />
        </mxCell>
        <mxCell id="JGorp6rQjVPcCGacSpVz-41" style="edgeStyle=orthogonalEdgeStyle;rounded=0;orthogonalLoop=1;jettySize=auto;html=1;entryX=1;entryY=0.5;entryDx=0;entryDy=0;" edge="1" parent="1" source="JGorp6rQjVPcCGacSpVz-24" target="JGorp6rQjVPcCGacSpVz-35">
          <mxGeometry relative="1" as="geometry" />
        </mxCell>
        <mxCell id="JGorp6rQjVPcCGacSpVz-42" value="&lt;span style=&quot;font-size: 20px;&quot;&gt;&lt;b&gt;PRODUCT&lt;/b&gt;&lt;/span&gt;" style="text;html=1;strokeColor=#b85450;fillColor=#f8cecc;align=center;verticalAlign=middle;whiteSpace=wrap;overflow=hidden;" vertex="1" parent="1">
          <mxGeometry x="245" y="180" width="230" height="30" as="geometry" />
        </mxCell>
        <mxCell id="JGorp6rQjVPcCGacSpVz-43" value="&lt;span style=&quot;font-size: 20px;&quot;&gt;&lt;b&gt;PRODUCT&lt;/b&gt;&lt;/span&gt;" style="text;html=1;strokeColor=#b85450;fillColor=#f8cecc;align=center;verticalAlign=middle;whiteSpace=wrap;overflow=hidden;" vertex="1" parent="1">
          <mxGeometry x="645" y="180" width="230" height="30" as="geometry" />
        </mxCell>
        <mxCell id="JGorp6rQjVPcCGacSpVz-44" value="&lt;span style=&quot;font-size: 20px;&quot;&gt;&lt;b&gt;CUSTOMER&lt;/b&gt;&lt;/span&gt;" style="text;html=1;strokeColor=#82b366;fillColor=#d5e8d4;align=center;verticalAlign=middle;whiteSpace=wrap;overflow=hidden;" vertex="1" parent="1">
          <mxGeometry x="245" y="380" width="230" height="30" as="geometry" />
        </mxCell>
        <mxCell id="JGorp6rQjVPcCGacSpVz-45" value="&lt;span style=&quot;font-size: 20px;&quot;&gt;&lt;b&gt;CUSTOMER&lt;/b&gt;&lt;/span&gt;" style="text;html=1;strokeColor=#82b366;fillColor=#d5e8d4;align=center;verticalAlign=middle;whiteSpace=wrap;overflow=hidden;" vertex="1" parent="1">
          <mxGeometry x="645" y="350" width="230" height="30" as="geometry" />
        </mxCell>
        <mxCell id="JGorp6rQjVPcCGacSpVz-46" value="&lt;span style=&quot;font-size: 20px;&quot;&gt;&lt;b&gt;CUSTOMER&lt;/b&gt;&lt;/span&gt;" style="text;html=1;strokeColor=#82b366;fillColor=#d5e8d4;align=center;verticalAlign=middle;whiteSpace=wrap;overflow=hidden;" vertex="1" parent="1">
          <mxGeometry x="645" y="495" width="230" height="30" as="geometry" />
        </mxCell>
        <mxCell id="JGorp6rQjVPcCGacSpVz-47" value="&lt;span style=&quot;font-size: 20px;&quot;&gt;&lt;b&gt;SALES&lt;/b&gt;&lt;/span&gt;" style="text;html=1;strokeColor=#9673a6;fillColor=#e1d5e7;align=center;verticalAlign=middle;whiteSpace=wrap;overflow=hidden;" vertex="1" parent="1">
          <mxGeometry x="-140" y="270" width="230" height="30" as="geometry" />
        </mxCell>
      </root>
    </mxGraphModel>
  </diagram>
</mxfile>
